C:\GBW_MyPrograms\KinderuniversiteitApp\Resultaten\TymenKool\Model1_v2.mot
version=1
nRows=15
nColumns=31
inDegrees=yes
endheader
                time	         pelvis_tilt	           pelvis_tx	           pelvis_ty	       hip_flexion_r	        knee_angle_r	       ankle_angle_r	       hip_flexion_l	        knee_angle_l	       ankle_angle_l	    lumbar_extension	          arm_flex_r	          arm_flex_l	hamstrings_r/activation	bifemsh_r/activation	glut_max_r/activation	iliopsoas_r/activation	rect_fem_r/activation	  vasti_r/activation	gastroc_r/activation	 soleus_r/activation	tib_ant_r/activation	hamstrings_l/activation	bifemsh_l/activation	glut_max_l/activation	iliopsoas_l/activation	rect_fem_l/activation	  vasti_l/activation	gastroc_l/activation	 soleus_l/activation	tib_ant_l/activation	
          0.00000000	         -1.97948512	          0.00000000	          1.04524686	         36.16143400	        -19.82188008	        -11.13711267	        -18.40880989	        -15.62492833	         -3.44568375	         -4.30886998	         -0.78460735	         -0.78459579	          0.56462707	          0.70476837	          0.41008861	          0.73649209	          0.55702385	          0.29874556	          0.35377974	          0.09943519	          0.88549804	          0.26586516	          0.54267487	          0.54867943	          0.80301787	          0.86812644	          0.77869397	          0.84057294	          0.93799973	          0.11729664	
          0.01745690	         -2.23680046	          0.03876578	          1.04559721	         36.36970284	        -23.45101487	        -10.54650836	        -19.64741457	        -15.09004205	        -10.95543426	         -2.74866722	         -3.10474906	         -3.10473721	          0.65787416	          0.65020738	          0.50600354	          0.61234240	          0.54079506	          0.44577189	          0.39346071	          0.10273507	          0.78272369	          0.30049810	          0.50775016	          0.53504209	          0.68701230	          0.82622277	          0.81455638	          0.74359581	          0.88179802	          0.09752420	
          0.03491380	         -2.49779186	          0.07874351	          1.04710623	         36.18913721	        -26.79584017	         -8.24093463	        -21.24252362	        -13.50282985	        -19.92326455	         -1.06942152	         -5.56008545	         -5.56007471	          0.57785954	          0.58963569	          0.74177355	          0.51330060	          0.57406941	          0.72223757	          0.37412839	          0.08697132	          0.83825703	          0.44153695	          0.56395557	          0.59709675	          0.68977135	          0.73328271	          0.69745750	          0.65055865	          0.72885166	          0.40181612	
          0.05237071	         -2.74113021	          0.11695159	          1.04946691	         35.93078518	        -29.96934334	         -5.00989981	        -22.51476949	        -12.01488329	        -25.08102005	          0.40808271	         -7.75922905	         -7.75921770	          0.49494277	          0.53296738	          0.72708065	          0.45957489	          0.63340122	          0.85234020	          0.37061893	          0.07470423	          0.79172556	          0.50493032	          0.59677753	          0.56774847	          0.75517744	          0.68019982	          0.63994637	          0.65743872	          0.77785529	          0.32215699	
          0.06982761	         -2.90853832	          0.15277673	          1.05289356	         35.19121168	        -32.18099763	         -2.17125854	        -23.05675611	        -11.45030200	        -26.47372161	          1.56409095	         -9.60774245	         -9.60773278	          0.41800519	          0.48093606	          0.79854750	          0.40555535	          0.67503995	          0.90726310	          0.37163928	          0.06780285	          0.71190837	          0.55554146	          0.63443546	          0.56971131	          0.79228290	          0.62130092	          0.55510929	          0.60129491	          0.64680609	          0.53384273	
          0.08728451	         -3.02717415	          0.18634951	          1.05747917	         33.91776661	        -33.29832232	          0.10413617	        -22.63238121	        -12.39254938	        -24.92233042	          2.45523108	        -11.12467466	        -11.12466406	          0.36614351	          0.43439363	          0.79917509	          0.35531906	          0.69739495	          0.92081885	          0.37683029	          0.08708068	          0.60243111	          0.58697479	          0.66594105	          0.53519108	          0.80518552	          0.58360967	          0.48673222	          0.57675096	          0.57047265	          0.66820204	
          0.10474141	         -3.07363868	          0.21791876	          1.06330502	         32.17115467	        -33.44317590	          1.55289510	        -21.43482443	        -14.32633036	        -23.45736919	          3.08843425	        -12.33322080	        -12.33321235	          0.32435907	          0.38958835	          0.82770017	          0.31044242	          0.73524053	          0.92223689	          0.38445439	          0.23339353	          0.50610916	          0.55394501	          0.66798329	          0.51845931	          0.82386598	          0.59373537	          0.44982667	          0.56042525	          0.51808495	          0.72471143	
          0.12219832	         -3.04530606	          0.24771935	          1.07041603	         29.99556039	        -32.67383312	          1.99668081	        -19.77001213	        -16.55583411	        -22.40384814	          3.49203750	        -13.25978857	        -13.25977909	          0.29945487	          0.35249422	          0.85412115	          0.27610611	          0.76229871	          0.92060766	          0.41726102	          0.54342452	          0.42285300	          0.51602104	          0.66538005	          0.50356764	          0.83528878	          0.61893703	          0.43933350	          0.55570147	          0.50463445	          0.72562310	
          0.13965522	         -2.93699110	          0.27594941	          1.07898111	         27.38571941	        -30.99462804	          1.46920315	        -17.95468380	        -18.38359021	        -21.65551042	          3.68732627	        -13.92528203	        -13.92527483	          0.29236946	          0.32972181	          0.84606587	          0.25630736	          0.77298220	          0.90467529	          0.50580451	          0.74757186	          0.34691542	          0.48028682	          0.66116926	          0.48521893	          0.83587276	          0.64798638	          0.44518148	          0.55033654	          0.48755035	          0.72919886	
          0.15711212	         -2.74787162	          0.30276353	          1.08912285	         24.33185564	        -28.40796297	          0.11903833	        -16.19355407	        -19.37651500	        -21.15131891	          3.69459457	        -14.34722897	        -14.34722104	          0.31819476	          0.33500503	          0.74625795	          0.26686194	          0.74104088	          0.79759200	          0.66097794	          0.85044390	          0.27755220	          0.45913424	          0.64826586	          0.48234874	          0.80027950	          0.66355914	          0.49225997	          0.53879861	          0.45638168	          0.75058786	
          0.17456902	         -2.48717171	          0.32826638	          1.10062335	         20.97204230	        -25.13971668	         -2.01317681	        -14.59770037	        -19.49960799	        -20.89370197	          3.53561549	        -14.54317945	        -14.54317350	          0.36434053	          0.41949151	          0.61189689	          0.40256489	          0.66199080	          0.64977022	          0.77602424	          0.89791722	          0.21778571	          0.47699290	          0.61898059	          0.52044931	          0.70245996	          0.64995781	          0.57527691	          0.53060602	          0.45449045	          0.78618514	
          0.19202593	         -2.17627702	          0.35241608	          1.11291748	         17.76897277	        -21.94006312	         -5.00270021	        -13.22722667	        -19.10088786	        -20.96627336	          3.22587898	        -14.51902551	        -14.51901945	          0.30814056	          0.59650562	          0.49555279	          0.64925200	          0.57739156	          0.52903337	          0.82221009	          0.90890047	          0.17032354	          0.61631164	          0.59238606	          0.62115151	          0.57722037	          0.59712635	          0.63704433	          0.52104287	          0.43200533	          0.73032768	
          0.20948283	         -1.84268886	          0.37498931	          1.12545764	         15.41820621	        -19.93835365	         -8.84862488	        -12.07605736	        -18.68511052	        -20.69747259	          2.76848801	        -14.25955111	        -14.25954644	          0.24678800	          0.74122036	          0.39917018	          0.81493142	          0.57221775	          0.44079785	          0.80679295	          0.85202664	          0.13328141	          0.76873490	          0.59938826	          0.66976550	          0.54202955	          0.52262292	          0.54128368	          0.54216904	          0.49228573	          0.71492092	
          0.22693973	         -1.49927005	          0.39590384	          1.13773261	         14.23185865	        -19.65529804	        -13.25829219	        -11.00430831	        -18.52644311	        -20.23460689	          2.16303807	        -13.76479428	        -13.76479014	          0.19563978	          0.78839766	          0.31997395	          0.89848506	          0.68999867	          0.37845491	          0.69042965	          0.66952167	          0.10549085	          0.86448864	          0.63687449	          0.65328689	          0.52499763	          0.46659501	          0.47467787	          0.54606500	          0.47830680	          0.71237357	
          0.24439663	         -1.16421340	          0.41543880	          1.14899317	         14.04898204	        -20.86281741	        -17.58287712	         -9.82250623	        -19.07994538	        -19.68630010	          1.44955451	        -13.08394998	        -13.08394673	          0.15389844	          0.68487286	          0.26292262	          0.92738300	          0.82878516	          0.40743389	          0.55517553	          0.52065357	          0.39893498	          0.90154235	          0.66941583	          0.63831239	          0.52606347	          0.42227309	          0.41357546	          0.55005303	          0.46476429	          0.72408771	
